<svg width="102" height="23" viewBox="0 0 102 23" fill="none" xmlns="http://www.w3.org/2000/svg">
<rect x="27" width="75" height="23" rx="11.5" fill="url(#paint0_radial_1_559)"/>
<rect x="27" width="75" height="23" rx="11.5" fill="#F1F1F1" fill-opacity="0.6"/>
<path d="M66.656 13.322C66.656 13.7553 66.5737 14.1453 66.409 14.492C66.2443 14.83 66.0103 15.1247 65.707 15.376C65.4123 15.6187 65.0527 15.805 64.628 15.935C64.212 16.065 63.7527 16.13 63.25 16.13C62.626 16.13 62.0973 16.0563 61.664 15.909C61.2307 15.753 60.8753 15.571 60.598 15.363V13.907C60.8753 14.141 61.222 14.3577 61.638 14.557C62.0627 14.7563 62.5697 14.856 63.159 14.856C63.7743 14.856 64.2423 14.7173 64.563 14.44C64.8923 14.1627 65.057 13.7813 65.057 13.296C65.057 12.802 64.9053 12.4337 64.602 12.191C64.2987 11.9397 63.8263 11.814 63.185 11.814H62.041V10.501H63.25C63.692 10.501 64.0517 10.384 64.329 10.15C64.615 9.90733 64.758 9.565 64.758 9.123C64.758 8.72433 64.6237 8.41233 64.355 8.187C64.0863 7.953 63.7007 7.836 63.198 7.836C62.6693 7.836 62.2187 7.93133 61.846 8.122C61.4733 8.31267 61.1267 8.538 60.806 8.798V7.355C61.1093 7.12967 61.4603 6.939 61.859 6.783C62.2663 6.627 62.769 6.549 63.367 6.549C63.8177 6.549 64.225 6.60967 64.589 6.731C64.953 6.85233 65.2607 7.02133 65.512 7.238C65.7633 7.45467 65.9583 7.71467 66.097 8.018C66.2357 8.32133 66.305 8.655 66.305 9.019C66.305 9.32233 66.253 9.591 66.149 9.825C66.0537 10.059 65.9237 10.267 65.759 10.449C65.5943 10.6223 65.4037 10.7653 65.187 10.878C64.979 10.982 64.758 11.0557 64.524 11.099C64.81 11.1337 65.0787 11.2117 65.33 11.333C65.59 11.4457 65.8153 11.5973 66.006 11.788C66.2053 11.97 66.3613 12.191 66.474 12.451C66.5953 12.711 66.656 13.0013 66.656 13.322ZM72.2305 16H70.6705V8.395L68.0185 10.371V8.811L70.8785 6.679H72.2305V16ZM81.1199 10.709C81.1199 11.5063 81.0419 12.2387 80.8859 12.906C80.7386 13.5733 80.5046 14.1453 80.1839 14.622C79.8633 15.0987 79.4559 15.4713 78.9619 15.74C78.4679 16 77.8786 16.13 77.1939 16.13C76.7346 16.13 76.3403 16.0823 76.0109 15.987C75.6816 15.8917 75.3913 15.766 75.1399 15.61V14.271C75.4433 14.4703 75.7639 14.622 76.1019 14.726C76.4486 14.8213 76.7909 14.869 77.1289 14.869C77.5016 14.869 77.8266 14.7997 78.1039 14.661C78.3899 14.5137 78.6326 14.31 78.8319 14.05C79.0313 13.79 79.1916 13.4823 79.3129 13.127C79.4343 12.763 79.5166 12.36 79.5599 11.918C79.0573 12.5333 78.3726 12.841 77.5059 12.841C77.1159 12.841 76.7476 12.7803 76.4009 12.659C76.0629 12.529 75.7639 12.3383 75.5039 12.087C75.2439 11.827 75.0359 11.5063 74.8799 11.125C74.7326 10.735 74.6589 10.28 74.6589 9.76C74.6589 9.25733 74.7413 8.80667 74.9059 8.408C75.0793 8.00933 75.3089 7.67567 75.5949 7.407C75.8896 7.12967 76.2276 6.91733 76.6089 6.77C76.9989 6.62267 77.4063 6.549 77.8309 6.549C78.9056 6.549 79.7203 6.89567 80.2749 7.589C80.8383 8.27367 81.1199 9.31367 81.1199 10.709ZM77.8569 7.823C77.6403 7.823 77.4323 7.862 77.2329 7.94C77.0423 8.018 76.8733 8.13933 76.7259 8.304C76.5786 8.46 76.4616 8.65933 76.3749 8.902C76.2883 9.136 76.2449 9.41333 76.2449 9.734C76.2449 10.046 76.2839 10.319 76.3619 10.553C76.4486 10.787 76.5613 10.982 76.6999 11.138C76.8473 11.294 77.0076 11.411 77.1809 11.489C77.3629 11.567 77.5536 11.606 77.7529 11.606C77.9869 11.606 78.2036 11.567 78.4029 11.489C78.6109 11.411 78.7929 11.294 78.9489 11.138C79.1049 10.982 79.2263 10.787 79.3129 10.553C79.3996 10.319 79.4429 10.0417 79.4429 9.721C79.4429 9.123 79.2956 8.65933 79.0009 8.33C78.7063 7.992 78.3249 7.823 77.8569 7.823ZM85.0434 16.13C84.584 16.13 84.1594 16.039 83.7694 15.857C83.3794 15.675 83.0414 15.389 82.7554 14.999C82.478 14.609 82.2614 14.1107 82.1054 13.504C81.9494 12.8973 81.8714 12.1737 81.8714 11.333C81.8714 10.4923 81.9494 9.773 82.1054 9.175C82.2614 8.56833 82.478 8.07433 82.7554 7.693C83.0414 7.303 83.3794 7.017 83.7694 6.835C84.1594 6.653 84.584 6.562 85.0434 6.562C85.5027 6.562 85.923 6.653 86.3044 6.835C86.6857 7.017 87.015 7.29867 87.2924 7.68C87.5697 8.06133 87.7864 8.551 87.9424 9.149C88.0984 9.747 88.1764 10.4663 88.1764 11.307C88.1764 12.1477 88.0984 12.8713 87.9424 13.478C87.7864 14.0847 87.5697 14.5873 87.2924 14.986C87.015 15.376 86.6857 15.6663 86.3044 15.857C85.923 16.039 85.5027 16.13 85.0434 16.13ZM85.0304 14.869C85.2904 14.869 85.5157 14.8127 85.7064 14.7C85.9057 14.5787 86.0704 14.3793 86.2004 14.102C86.3304 13.8247 86.43 13.465 86.4994 13.023C86.5687 12.5723 86.6034 12.0133 86.6034 11.346C86.6034 10.6873 86.5687 10.137 86.4994 9.695C86.4387 9.24433 86.3434 8.88033 86.2134 8.603C86.0834 8.32567 85.9187 8.12633 85.7194 8.005C85.5287 7.88367 85.3034 7.823 85.0434 7.823C84.7834 7.823 84.5537 7.88367 84.3544 8.005C84.155 8.12633 83.986 8.32567 83.8474 8.603C83.7174 8.88033 83.6177 9.24433 83.5484 9.695C83.479 10.137 83.4444 10.6873 83.4444 11.346C83.4444 12.0133 83.479 12.5723 83.5484 13.023C83.6177 13.465 83.7174 13.8247 83.8474 14.102C83.9774 14.3793 84.142 14.5787 84.3414 14.7C84.5407 14.8127 84.7704 14.869 85.0304 14.869ZM90.7788 10.891V6.679H93.1448C94.1068 6.679 94.8695 6.9 95.4328 7.342C96.0048 7.77533 96.2908 8.44267 96.2908 9.344C96.2908 9.812 96.2128 10.2107 96.0568 10.54C95.9008 10.8693 95.6798 11.138 95.3938 11.346C95.1165 11.554 94.7785 11.71 94.3798 11.814C93.9812 11.9093 93.5435 11.957 93.0668 11.957H92.3518V12.88H94.9648V13.946H92.3518V16H90.7788V13.946H89.7908V12.88H90.7788V11.957H89.7908V10.891H90.7788ZM92.3518 7.953V10.891H93.0798C94.1718 10.891 94.7178 10.3797 94.7178 9.357C94.7178 8.863 94.5922 8.50767 94.3408 8.291C94.0982 8.06567 93.6995 7.953 93.1448 7.953H92.3518Z" fill="#808080"/>
<path d="M60 12L97 12" stroke="#808080"/>
<rect width="56" height="23" rx="11.5" fill="url(#paint1_radial_1_559)"/>
<path d="M14.92 15.084V18H12.85V15.084H7.45V13.572L12.49 5.094H14.92V13.392H16.486V15.084H14.92ZM12.85 13.392V7.668L9.412 13.392H12.85ZM26.3465 10.674C26.3465 11.778 26.2385 12.792 26.0225 13.716C25.8185 14.64 25.4945 15.432 25.0505 16.092C24.6065 16.752 24.0425 17.268 23.3585 17.64C22.6745 18 21.8585 18.18 20.9105 18.18C20.2745 18.18 19.7285 18.114 19.2725 17.982C18.8165 17.85 18.4145 17.676 18.0665 17.46V15.606C18.4865 15.882 18.9305 16.092 19.3985 16.236C19.8785 16.368 20.3525 16.434 20.8205 16.434C21.3365 16.434 21.7865 16.338 22.1705 16.146C22.5665 15.942 22.9025 15.66 23.1785 15.3C23.4545 14.94 23.6765 14.514 23.8445 14.022C24.0125 13.518 24.1265 12.96 24.1865 12.348C23.4905 13.2 22.5425 13.626 21.3425 13.626C20.8025 13.626 20.2925 13.542 19.8125 13.374C19.3445 13.194 18.9305 12.93 18.5705 12.582C18.2105 12.222 17.9225 11.778 17.7065 11.25C17.5025 10.71 17.4005 10.08 17.4005 9.36C17.4005 8.664 17.5145 8.04 17.7425 7.488C17.9825 6.936 18.3005 6.474 18.6965 6.102C19.1045 5.718 19.5725 5.424 20.1005 5.22C20.6405 5.016 21.2045 4.914 21.7925 4.914C23.2805 4.914 24.4085 5.394 25.1765 6.354C25.9565 7.302 26.3465 8.742 26.3465 10.674ZM21.8285 6.678C21.5285 6.678 21.2405 6.732 20.9645 6.84C20.7005 6.948 20.4665 7.116 20.2625 7.344C20.0585 7.56 19.8965 7.836 19.7765 8.172C19.6565 8.496 19.5965 8.88 19.5965 9.324C19.5965 9.756 19.6505 10.134 19.7585 10.458C19.8785 10.782 20.0345 11.052 20.2265 11.268C20.4305 11.484 20.6525 11.646 20.8925 11.754C21.1445 11.862 21.4085 11.916 21.6845 11.916C22.0085 11.916 22.3085 11.862 22.5845 11.754C22.8725 11.646 23.1245 11.484 23.3405 11.268C23.5565 11.052 23.7245 10.782 23.8445 10.458C23.9645 10.134 24.0245 9.75 24.0245 9.306C24.0245 8.478 23.8205 7.836 23.4125 7.38C23.0045 6.912 22.4765 6.678 21.8285 6.678ZM36.243 10.674C36.243 11.778 36.135 12.792 35.919 13.716C35.715 14.64 35.391 15.432 34.947 16.092C34.503 16.752 33.939 17.268 33.255 17.64C32.571 18 31.755 18.18 30.807 18.18C30.171 18.18 29.625 18.114 29.169 17.982C28.713 17.85 28.311 17.676 27.963 17.46V15.606C28.383 15.882 28.827 16.092 29.295 16.236C29.775 16.368 30.249 16.434 30.717 16.434C31.233 16.434 31.683 16.338 32.067 16.146C32.463 15.942 32.799 15.66 33.075 15.3C33.351 14.94 33.573 14.514 33.741 14.022C33.909 13.518 34.023 12.96 34.083 12.348C33.387 13.2 32.439 13.626 31.239 13.626C30.699 13.626 30.189 13.542 29.709 13.374C29.241 13.194 28.827 12.93 28.467 12.582C28.107 12.222 27.819 11.778 27.603 11.25C27.399 10.71 27.297 10.08 27.297 9.36C27.297 8.664 27.411 8.04 27.639 7.488C27.879 6.936 28.197 6.474 28.593 6.102C29.001 5.718 29.469 5.424 29.997 5.22C30.537 5.016 31.101 4.914 31.689 4.914C33.177 4.914 34.305 5.394 35.073 6.354C35.853 7.302 36.243 8.742 36.243 10.674ZM31.725 6.678C31.425 6.678 31.137 6.732 30.861 6.84C30.597 6.948 30.363 7.116 30.159 7.344C29.955 7.56 29.793 7.836 29.673 8.172C29.553 8.496 29.493 8.88 29.493 9.324C29.493 9.756 29.547 10.134 29.655 10.458C29.775 10.782 29.931 11.052 30.123 11.268C30.327 11.484 30.549 11.646 30.789 11.754C31.041 11.862 31.305 11.916 31.581 11.916C31.905 11.916 32.205 11.862 32.481 11.754C32.769 11.646 33.021 11.484 33.237 11.268C33.453 11.052 33.621 10.782 33.741 10.458C33.861 10.134 33.921 9.75 33.921 9.306C33.921 8.478 33.717 7.836 33.309 7.38C32.901 6.912 32.373 6.678 31.725 6.678ZM39.7203 10.926V5.094H42.9963C44.3283 5.094 45.3843 5.4 46.1643 6.012C46.9563 6.612 47.3523 7.536 47.3523 8.784C47.3523 9.432 47.2443 9.984 47.0283 10.44C46.8123 10.896 46.5063 11.268 46.1103 11.556C45.7263 11.844 45.2583 12.06 44.7063 12.204C44.1543 12.336 43.5483 12.402 42.8883 12.402H41.8983V13.68H45.5163V15.156H41.8983V18H39.7203V15.156H38.3523V13.68H39.7203V12.402H38.3523V10.926H39.7203ZM41.8983 6.858V10.926H42.9063C44.4183 10.926 45.1743 10.218 45.1743 8.802C45.1743 8.118 45.0003 7.626 44.6523 7.326C44.3163 7.014 43.7643 6.858 42.9963 6.858H41.8983Z" fill="#21201F"/>
<defs>
<radialGradient id="paint0_radial_1_559" cx="0" cy="0" r="1" gradientUnits="userSpaceOnUse" gradientTransform="translate(102 -1.37091e-06) rotate(162.951) scale(78.4474 43.9785)">
<stop stop-color="#E0B8FF"/>
<stop offset="1" stop-color="#B6B9FF"/>
</radialGradient>
<radialGradient id="paint1_radial_1_559" cx="0" cy="0" r="1" gradientUnits="userSpaceOnUse" gradientTransform="translate(56 -1.37091e-06) rotate(157.671) scale(60.5392 42.5509)">
<stop stop-color="#E0B8FF"/>
<stop offset="1" stop-color="#B6B9FF"/>
</radialGradient>
</defs>
</svg>
